<svg data-v-423bf9ae="" xmlns="http://www.w3.org/2000/svg" viewBox="0 0 1454.7807728946216 193" class="fontAboveSlogan"><!----><defs data-v-423bf9ae=""><linearGradient data-v-423bf9ae="" gradientTransform="rotate(25)" id="8a8df406-fa1b-4e45-971b-3d416d74304f" x1="0%" y1="0%" x2="100%" y2="0%"><stop data-v-423bf9ae="" offset="0%" style="stop-color: rgb(24, 27, 128); stop-opacity: 1;"></stop><stop data-v-423bf9ae="" offset="100%" style="stop-color: rgb(24, 30, 217); stop-opacity: 1;"></stop></linearGradient></defs><!----><g data-v-423bf9ae="" id="4cbf71d8-fca1-41b1-8b61-e77d9a7a99e4" fill="#ffffff" transform="matrix(9.1116172592892,0,0,9.1116172592892,76.12593060700192,-21.63011343267283)"><path d="M5.41 12.67Q3.23 12.67 1.76 11.20Q0.29 9.73 0.29 7.53L0.29 7.53Q0.29 5.37 1.76 3.89Q3.23 2.42 5.41 2.42L5.41 2.42Q7.60 2.42 9.17 3.79L9.17 3.79L7.81 5.28Q6.76 4.46 5.41 4.46L5.41 4.46Q4.03 4.47 3.18 5.33Q2.34 6.18 2.34 7.51L2.34 7.51Q2.34 8.94 3.19 9.78Q4.04 10.62 5.42 10.62L5.42 10.62Q6.53 10.62 7.12 10.19L7.12 10.19L7.12 8.43L5.76 8.44L5.76 6.52L9.17 6.52L9.17 11.31Q7.61 12.67 5.41 12.67L5.41 12.67ZM11.96 7.82L11.21 6.66Q12.51 5.84 14.22 5.84L14.22 5.84Q15.45 5.84 16.17 6.52Q16.88 7.21 16.88 8.57L16.88 8.57L16.88 12.67L14.97 12.67L14.97 12.13Q14.14 12.67 13.47 12.67L13.47 12.67Q12.10 12.67 11.42 12.09Q10.73 11.51 10.73 10.49L10.73 10.49Q10.73 9.53 11.38 8.78Q12.02 8.03 13.47 8.03L13.47 8.03Q14.13 8.03 14.97 8.44L14.97 8.44L14.97 8.23Q14.96 7.48 13.88 7.41L13.88 7.41Q12.65 7.41 11.96 7.82L11.96 7.82ZM14.97 10.62L14.97 10.62L14.97 9.85Q14.70 9.32 13.67 9.32L13.67 9.32Q12.44 9.46 12.37 10.28L12.37 10.28Q12.44 11.09 13.67 11.16L13.67 11.16Q14.70 11.16 14.97 10.62ZM20.48 15.55L18.57 15.54L18.57 6.04L20.48 5.83L20.48 6.38Q21.25 5.83 21.98 5.83L21.98 5.83Q23.56 5.83 24.48 6.86Q25.40 7.88 25.40 9.25L25.40 9.25Q25.40 10.62 24.48 11.64Q23.56 12.67 21.98 12.67L21.98 12.67Q20.96 12.60 20.48 12.11L20.48 12.11L20.48 15.55ZM20.48 8.63L20.48 8.63L20.48 9.74Q20.62 10.89 21.92 11.09L21.92 11.09Q23.56 10.96 23.76 9.39L23.76 9.39Q23.69 7.47 21.92 7.40L21.92 7.40Q20.62 7.61 20.48 8.63ZM33.61 6.54L33.61 4.46L36.50 4.46Q37.72 4.50 37.75 5.26L37.75 5.26Q37.72 6.51 36.48 6.54L36.48 6.54L33.61 6.54ZM33.61 11.07L33.61 8.57L36.98 8.57Q38.40 8.61 38.44 9.59L38.44 9.59Q38.40 11.05 36.96 11.07L36.96 11.07L33.61 11.07ZM39.73 5.44L39.73 5.44Q39.59 2.58 37.00 2.43L37.00 2.43L31.55 2.43L31.55 12.67L37.32 12.68Q40.28 12.51 40.42 9.61L40.42 9.61Q40.34 8.17 38.99 7.27L38.99 7.27Q39.68 6.81 39.73 5.44ZM44.07 5.83L44.07 6.59Q44.80 5.84 45.86 5.84L45.86 5.84Q46.19 5.84 46.49 5.89L46.49 5.89L46.19 7.78Q45.86 7.48 45.23 7.46L45.23 7.46Q44.54 7.51 44.07 8.47L44.07 8.47L44.07 12.67L42.16 12.67L42.16 6.04L44.07 5.83ZM49.66 12.67L47.75 12.67L47.75 5.83L49.66 5.83L49.66 12.67ZM47.68 4.20L47.68 4.20Q47.68 4.61 47.95 4.88Q48.23 5.15 48.71 5.15L48.71 5.15Q49.18 5.15 49.46 4.88Q49.73 4.61 49.73 4.20L49.73 4.20Q49.73 3.79 49.46 3.51Q49.18 3.23 48.69 3.23L48.69 3.23Q48.23 3.23 47.95 3.51Q47.68 3.79 47.68 4.20ZM55.90 2.42L57.82 2.43L57.82 12.67L55.90 12.67L55.90 12.13Q55.14 12.67 54.40 12.67L54.40 12.67Q52.83 12.67 51.91 11.65Q50.98 10.62 50.98 9.26L50.98 9.26Q50.98 7.89 51.91 6.86Q52.83 5.84 54.40 5.84L54.40 5.84Q55.43 5.91 55.90 6.39L55.90 6.39L55.90 2.42ZM55.90 9.87L55.90 9.87L55.90 8.76Q55.77 7.62 54.47 7.42L54.47 7.42Q52.83 7.55 52.62 9.12L52.62 9.12Q52.69 11.03 54.47 11.10L54.47 11.10Q55.77 10.90 55.90 9.87ZM64.04 5.84L65.95 6.04L65.95 12.13Q65.95 13.56 65.10 14.53Q64.24 15.49 62.95 15.54L62.95 15.54L62.54 15.59Q60.55 15.54 59.46 14.45L59.46 14.45L60.35 13.43Q61.10 13.97 62.17 14.04L62.17 14.04Q63.27 14.04 63.65 13.53Q64.04 13.02 64.04 12.40L64.04 12.40L64.04 12.06Q63.27 12.67 62.26 12.67L62.26 12.67Q60.69 12.67 59.90 11.75Q59.12 10.83 59.12 9.26L59.12 9.26Q59.12 7.75 59.97 6.79Q60.83 5.84 62.40 5.84L62.40 5.84Q63.56 5.91 64.04 6.46L64.04 6.46L64.04 5.84ZM64.04 9.87L64.04 9.87L64.04 8.76Q63.90 7.62 62.60 7.42L62.60 7.42Q60.89 7.48 60.76 9.12L60.76 9.12Q60.83 11.03 62.60 11.10L62.60 11.10Q63.90 10.90 64.04 9.87ZM69.23 12.67L67.32 12.67L67.32 5.83L69.23 5.83L69.23 12.67ZM67.25 4.20L67.25 4.20Q67.25 4.61 67.53 4.88Q67.80 5.15 68.28 5.15L68.28 5.15Q68.76 5.15 69.03 4.88Q69.30 4.61 69.30 4.20L69.30 4.20Q69.30 3.79 69.03 3.51Q68.76 3.23 68.26 3.23L68.26 3.23Q67.80 3.23 67.53 3.51Q67.25 3.79 67.25 4.20ZM72.82 8.33L72.82 8.33L72.82 12.67L70.90 12.67L70.90 6.04L72.82 5.83L72.82 6.45Q73.51 5.84 74.46 5.84L74.46 5.84Q75.76 5.84 76.44 6.62Q77.12 7.41 77.12 8.44L77.12 8.44L77.12 12.67L75.21 12.67L75.21 8.91Q75.21 8.23 74.87 7.85Q74.53 7.48 73.83 7.46L73.83 7.46Q73.24 7.50 72.82 8.33ZM83.27 5.84L85.18 6.04L85.18 12.13Q85.18 13.56 84.33 14.53Q83.47 15.49 82.17 15.54L82.17 15.54L81.76 15.59Q79.78 15.54 78.69 14.45L78.69 14.45L79.58 13.43Q80.33 13.97 81.40 14.04L81.40 14.04Q82.50 14.04 82.88 13.53Q83.27 13.02 83.27 12.40L83.27 12.40L83.27 12.06Q82.50 12.67 81.49 12.67L81.49 12.67Q79.92 12.67 79.13 11.75Q78.35 10.83 78.35 9.26L78.35 9.26Q78.35 7.75 79.20 6.79Q80.06 5.84 81.63 5.84L81.63 5.84Q82.79 5.91 83.27 6.46L83.27 6.46L83.27 5.84ZM83.27 9.87L83.27 9.87L83.27 8.76Q83.13 7.62 81.83 7.42L81.83 7.42Q80.12 7.48 79.99 9.12L79.99 9.12Q80.06 11.03 81.83 11.10L81.83 11.10Q83.13 10.90 83.27 9.87ZM94.83 2.42Q96.26 2.42 97.04 2.76Q97.83 3.10 98.51 3.79L98.51 3.79L97.15 5.15Q96.46 4.33 95.23 4.33L95.23 4.33Q94.00 4.33 93.66 4.92Q93.32 5.50 93.66 5.91Q94.00 6.32 95.23 6.52L95.23 6.52Q96.53 6.66 97.59 7.38Q98.65 8.09 98.65 9.67L98.65 9.67Q98.65 10.90 97.52 11.79Q96.39 12.67 94.88 12.67L94.88 12.67Q93.45 12.67 92.50 12.26Q91.54 11.85 90.86 11.17L90.86 11.17L92.22 9.80Q92.91 10.62 94.55 10.76L94.55 10.76Q95.92 10.76 96.25 10.18Q96.59 9.60 96.25 9.02Q95.92 8.44 94.55 8.30L94.55 8.30Q93.32 8.16 92.29 7.55Q91.27 6.93 91.27 5.43L91.27 5.43Q91.27 4.07 92.43 3.24Q93.60 2.42 94.83 2.42L94.83 2.42ZM103.41 12.74Q101.92 12.74 100.93 11.74Q99.93 10.74 99.93 9.26L99.93 9.26Q99.93 7.77 100.93 6.77Q101.92 5.77 103.41 5.77L103.41 5.77Q104.90 5.77 105.90 6.77Q106.90 7.77 106.90 9.26L106.90 9.26Q106.90 10.75 105.90 11.74Q104.90 12.74 103.41 12.74L103.41 12.74ZM103.41 11.09L103.41 11.09Q104.19 11.09 104.67 10.56Q105.16 10.04 105.16 9.26L105.16 9.26Q105.16 8.48 104.67 7.96Q104.19 7.43 103.40 7.43L103.40 7.43Q102.63 7.43 102.14 7.96Q101.66 8.48 101.66 9.26L101.66 9.26Q101.66 10.04 102.14 10.56Q102.63 11.09 103.41 11.09ZM110.11 12.67L108.20 12.67L108.20 2.42L110.11 2.42L110.11 12.67ZM116.24 10.25L116.24 10.25L116.24 5.83L118.15 5.83L118.15 12.67L116.24 12.67L116.24 12.05Q115.55 12.67 114.60 12.67L114.60 12.67Q113.30 12.67 112.62 11.88Q111.93 11.09 111.93 10.07L111.93 10.07L111.93 5.83L113.85 5.83L113.85 9.59Q113.85 10.27 114.19 10.65Q114.53 11.03 115.22 11.05L115.22 11.05Q115.81 11.01 116.24 10.25ZM124.02 12.35Q123.53 12.67 122.90 12.67L122.90 12.67Q121.73 12.67 121.05 12.02Q120.37 11.38 120.37 10.35L120.37 10.35L120.37 7.39L119.34 7.39L119.34 5.84L120.37 5.84L120.37 3.99L122.29 3.79L122.29 5.84L123.31 5.84L123.31 7.39L122.29 7.39L122.29 10.08Q122.29 10.62 122.52 10.85Q122.75 11.07 123.11 11.07L123.11 11.07Q123.22 11.07 123.62 10.98L123.62 10.98L124.02 12.35ZM127.10 12.67L125.19 12.67L125.19 5.83L127.10 5.83L127.10 12.67ZM125.12 4.20L125.12 4.20Q125.12 4.61 125.39 4.88Q125.67 5.15 126.14 5.15L126.14 5.15Q126.62 5.15 126.90 4.88Q127.17 4.61 127.17 4.20L127.17 4.20Q127.17 3.79 126.90 3.51Q126.62 3.23 126.13 3.23L126.13 3.23Q125.67 3.23 125.39 3.51Q125.12 3.79 125.12 4.20ZM131.86 12.74Q130.37 12.74 129.37 11.74Q128.37 10.74 128.37 9.26L128.37 9.26Q128.37 7.77 129.37 6.77Q130.37 5.77 131.86 5.77L131.86 5.77Q133.35 5.77 134.35 6.77Q135.34 7.77 135.34 9.26L135.34 9.26Q135.34 10.75 134.35 11.74Q133.35 12.74 131.86 12.74L131.86 12.74ZM131.85 11.09L131.85 11.09Q132.63 11.09 133.12 10.56Q133.60 10.04 133.60 9.26L133.60 9.26Q133.60 8.48 133.12 7.96Q132.63 7.43 131.84 7.43L131.84 7.43Q131.07 7.43 130.59 7.96Q130.10 8.48 130.10 9.26L130.10 9.26Q130.10 10.04 130.59 10.56Q131.07 11.09 131.85 11.09ZM138.56 8.33L138.56 8.33L138.56 12.67L136.64 12.67L136.64 6.04L138.56 5.83L138.56 6.45Q139.25 5.84 140.20 5.84L140.20 5.84Q141.50 5.84 142.18 6.62Q142.86 7.41 142.86 8.44L142.86 8.44L142.86 12.67L140.95 12.67L140.95 8.91Q140.95 8.23 140.61 7.85Q140.27 7.48 139.58 7.46L139.58 7.46Q138.98 7.50 138.56 8.33Z"></path></g><!----><!----><g data-v-423bf9ae="" id="e87941e6-08de-4800-8bce-64c3be1ec881" fill="#ffffff" transform="matrix(6.749156818825468,0,0,6.749156818825468,-2.294707635393138,94.59730255990198)"><path d="M1.57 6.36L0.34 6.18L0.39 5.89L6.58 5.89L6.37 8.07L6.06 8.03L5.93 6.24L2.28 6.24L2.28 9.89L4.57 9.89L4.82 8.94L5.19 8.89L4.96 11.55L4.61 11.61L4.50 10.26L2.28 10.26L2.28 14.03L6.12 14.03L6.62 12.19L6.90 12.26L6.70 14.40L0.36 14.40L0.40 14.11L1.57 13.90L1.57 6.36ZM17.42 14.40L14.59 14.40L14.62 14.17L15.76 13.96L16.33 6.36L15.07 6.14L15.12 5.89L17.30 5.89L17.79 7.18L19.93 12.84L22.38 6.88L22.80 5.89L25.03 5.89L24.99 6.14L23.82 6.34L24.19 14.01L25.42 14.12L25.41 14.40L22.25 14.40L22.29 14.17L23.46 13.96L23.07 6.41L19.89 13.99L19.55 14.05L16.76 6.53L16.22 14.01L17.46 14.12L17.42 14.40ZM36.53 14.40L33.12 14.40L33.15 14.11L34.23 13.90L34.23 6.51L33.13 6.36L33.19 6.12Q33.36 6.09 33.81 6.02Q34.25 5.94 34.48 5.91Q34.71 5.88 35.12 5.84Q35.53 5.81 35.95 5.81L35.95 5.81Q36.64 5.81 37.23 5.96Q37.82 6.10 38.28 6.40Q38.74 6.69 39.00 7.18Q39.26 7.66 39.26 8.29L39.26 8.29Q39.26 8.90 38.98 9.43Q38.70 9.97 38.24 10.33Q37.78 10.69 37.17 10.90Q36.57 11.10 35.94 11.10L35.94 11.10Q35.66 11.10 35.59 11.09L35.59 11.09L35.53 10.80L35.90 10.78Q36.56 10.75 37.05 10.55Q37.55 10.36 37.84 10.03Q38.13 9.70 38.27 9.30Q38.41 8.90 38.41 8.43L38.41 8.43Q38.41 7.98 38.24 7.57Q38.08 7.16 37.75 6.83Q37.43 6.50 36.91 6.31Q36.39 6.11 35.74 6.11L35.74 6.11L34.99 6.15L34.99 13.95L36.59 14.08L36.53 14.40ZM47.73 9.75L47.73 9.75Q47.73 11.03 48.09 12.01Q48.45 13.00 49.17 13.57Q49.89 14.14 50.87 14.14L50.87 14.14Q51.44 14.14 51.93 13.92Q52.42 13.70 52.77 13.33Q53.12 12.96 53.36 12.49Q53.60 12.01 53.72 11.50Q53.83 10.99 53.83 10.48L53.83 10.48Q53.83 8.50 52.98 7.29Q52.13 6.07 50.68 6.07L50.68 6.07Q50.10 6.07 49.61 6.28Q49.12 6.49 48.77 6.85Q48.43 7.21 48.19 7.69Q47.95 8.16 47.84 8.69Q47.73 9.21 47.73 9.75ZM46.98 10.16L46.98 10.16Q46.98 8.16 48.07 6.92Q49.17 5.69 51.01 5.69L51.01 5.69Q52.14 5.69 52.96 6.27Q53.78 6.86 54.17 7.84Q54.57 8.83 54.57 10.11L54.57 10.11Q54.57 10.75 54.42 11.38Q54.27 12.00 53.95 12.58Q53.62 13.17 53.16 13.61Q52.70 14.05 52.02 14.32Q51.34 14.58 50.54 14.58L50.54 14.58Q49.49 14.58 48.66 13.98Q47.84 13.37 47.41 12.37Q46.98 11.37 46.98 10.16ZM63.10 6.34L62.27 6.15L62.32 5.89L65.00 5.89L64.98 6.11L63.85 6.32L65.81 13.18L67.85 6.18L68.17 6.14L70.10 13.18L72.32 6.36L71.04 6.13L71.07 5.89L73.69 5.89L73.67 6.14L72.86 6.34L70.17 14.49L69.73 14.57L67.89 7.63L65.88 14.49L65.39 14.57L63.10 6.34ZM82.61 6.36L81.39 6.18L81.44 5.89L87.63 5.89L87.42 8.07L87.10 8.03L86.97 6.24L83.32 6.24L83.32 9.89L85.61 9.89L85.87 8.94L86.24 8.89L86.01 11.55L85.66 11.61L85.55 10.26L83.32 10.26L83.32 14.03L87.17 14.03L87.67 12.19L87.95 12.26L87.75 14.40L81.41 14.40L81.45 14.11L82.61 13.90L82.61 6.36ZM97.48 6.18L97.48 10.11L99.03 10.11Q99.72 9.86 100.17 9.28Q100.63 8.70 100.63 8.02L100.63 8.02Q100.63 7.11 100.01 6.63Q99.39 6.15 98.31 6.15L98.31 6.15L97.48 6.18ZM98.85 14.40L95.66 14.40L95.71 14.11L96.78 13.90L96.78 6.51L95.68 6.37L95.74 6.13Q97.57 5.83 98.65 5.83L98.65 5.83Q99.42 5.83 100.02 6.05Q100.63 6.27 101.01 6.73Q101.38 7.19 101.38 7.83L101.38 7.83Q101.38 8.57 100.96 9.14Q100.53 9.72 99.50 10.23L99.50 10.23L99.50 10.23L100.82 12.19Q101.53 13.23 101.87 13.58Q102.22 13.92 102.60 14.05L102.60 14.05L102.93 14.16L102.89 14.42Q102.59 14.52 102.25 14.52L102.25 14.52Q101.96 14.52 101.71 14.40Q101.46 14.28 101.22 14.01Q100.97 13.75 100.79 13.48Q100.60 13.22 100.33 12.77L100.33 12.77L98.94 10.49L97.48 10.49L97.48 13.95L98.92 14.08L98.85 14.40ZM121.47 6.35L120.52 6.15L120.54 5.90L123.40 5.90L123.37 6.15L122.23 6.32L124.37 10.49L126.49 6.34L125.23 6.14L125.24 5.89L127.91 5.89L127.89 6.14L127.00 6.32L124.62 11.05L124.62 13.94L125.86 14.08L125.80 14.40L122.66 14.40L122.70 14.11L123.89 13.90L123.89 11.05L121.47 6.35ZM136.39 9.75L136.39 9.75Q136.39 11.03 136.75 12.01Q137.12 13.00 137.83 13.57Q138.55 14.14 139.53 14.14L139.53 14.14Q140.10 14.14 140.59 13.92Q141.09 13.70 141.43 13.33Q141.78 12.96 142.02 12.49Q142.26 12.01 142.38 11.50Q142.50 10.99 142.50 10.48L142.50 10.48Q142.50 8.50 141.64 7.29Q140.79 6.07 139.34 6.07L139.34 6.07Q138.76 6.07 138.27 6.28Q137.78 6.49 137.44 6.85Q137.09 7.21 136.86 7.69Q136.62 8.16 136.50 8.69Q136.39 9.21 136.39 9.75ZM135.64 10.16L135.64 10.16Q135.64 8.16 136.74 6.92Q137.83 5.69 139.67 5.69L139.67 5.69Q140.81 5.69 141.62 6.27Q142.44 6.86 142.84 7.84Q143.23 8.83 143.23 10.11L143.23 10.11Q143.23 10.75 143.08 11.38Q142.93 12.00 142.61 12.58Q142.28 13.17 141.82 13.61Q141.36 14.05 140.68 14.32Q140.01 14.58 139.20 14.58L139.20 14.58Q138.15 14.58 137.32 13.98Q136.50 13.37 136.07 12.37Q135.64 11.37 135.64 10.16ZM152.17 6.33L150.93 6.16L150.96 5.89L154.06 5.89L154.03 6.16L152.88 6.32L152.88 11.01Q152.88 11.87 153.06 12.49Q153.24 13.10 153.59 13.45Q153.94 13.79 154.39 13.95Q154.83 14.11 155.42 14.11L155.42 14.11Q156.60 14.11 157.24 13.40Q157.88 12.68 157.88 11.33L157.88 11.33L157.88 6.33L156.61 6.16L156.65 5.89L159.55 5.89L159.50 6.16L158.36 6.32L158.34 11.05Q158.33 12.78 157.60 13.68Q156.86 14.58 155.20 14.58L155.20 14.58Q154.70 14.58 154.27 14.49Q153.85 14.40 153.45 14.16Q153.06 13.93 152.78 13.56Q152.50 13.19 152.34 12.60Q152.17 12.01 152.17 11.24L152.17 11.24L152.17 6.33ZM169.05 6.18L169.05 10.11L170.60 10.11Q171.29 9.86 171.75 9.28Q172.20 8.70 172.20 8.02L172.20 8.02Q172.20 7.11 171.59 6.63Q170.97 6.15 169.88 6.15L169.88 6.15L169.05 6.18ZM170.43 14.40L167.23 14.40L167.28 14.11L168.35 13.90L168.35 6.51L167.25 6.37L167.32 6.13Q169.14 5.83 170.22 5.83L170.22 5.83Q170.99 5.83 171.60 6.05Q172.20 6.27 172.58 6.73Q172.96 7.19 172.96 7.83L172.96 7.83Q172.96 8.57 172.53 9.14Q172.10 9.72 171.07 10.23L171.07 10.23L171.07 10.23L172.39 12.19Q173.10 13.23 173.44 13.58Q173.79 13.92 174.17 14.05L174.17 14.05L174.50 14.16L174.46 14.42Q174.17 14.52 173.82 14.52L173.82 14.52Q173.54 14.52 173.28 14.40Q173.03 14.28 172.79 14.01Q172.55 13.75 172.36 13.48Q172.18 13.22 171.90 12.77L171.90 12.77L170.52 10.49L169.05 10.49L169.05 13.95L170.50 14.08L170.43 14.40ZM193.33 6.33L192.10 6.16L192.12 5.89L195.23 5.89L195.20 6.16L194.04 6.32L194.04 9.95L198.95 9.95L198.95 6.33L197.70 6.16L197.74 5.89L200.85 5.89L200.80 6.16L199.66 6.32L199.66 13.95L200.91 14.08L200.86 14.40L197.76 14.40L197.82 14.11L198.95 13.90L198.95 10.36L194.04 10.36L194.04 13.95L195.32 14.08L195.24 14.40L192.15 14.40L192.19 14.11L193.33 13.90L193.33 6.33ZM210.44 6.18L210.44 10.11L211.99 10.11Q212.67 9.86 213.13 9.28Q213.59 8.70 213.59 8.02L213.59 8.02Q213.59 7.11 212.97 6.63Q212.35 6.15 211.26 6.15L211.26 6.15L210.44 6.18ZM211.81 14.40L208.62 14.40L208.67 14.11L209.73 13.90L209.73 6.51L208.64 6.37L208.70 6.13Q210.53 5.83 211.61 5.83L211.61 5.83Q212.37 5.83 212.98 6.05Q213.59 6.27 213.96 6.73Q214.34 7.19 214.34 7.83L214.34 7.83Q214.34 8.57 213.91 9.14Q213.49 9.72 212.45 10.23L212.45 10.23L212.45 10.23L213.77 12.19Q214.48 13.23 214.83 13.58Q215.17 13.92 215.56 14.05L215.56 14.05L215.89 14.16L215.84 14.42Q215.55 14.52 215.21 14.52L215.21 14.52Q214.92 14.52 214.67 14.40Q214.42 14.28 214.17 14.01Q213.93 13.75 213.75 13.48Q213.56 13.22 213.29 12.77L213.29 12.77L211.90 10.49L210.44 10.49L210.44 13.95L211.88 14.08L211.81 14.40Z"></path></g></svg>